# xmcd CD database file
# Copyright (C) 1993-1998 Ti Kan
#
# Track frame offsets:
#  150
#  17697
#  31862
#  43875
#  57760
#  81282
#  96902
#  114670
#  125990
#  145355
#  155670
#  173515
#  184532
#
# Disc length: 2665 seconds
#
# Revision: 1
# Processed by: cddbd v1.4b41PL1 Copyright (c) Steve Scherf et al.
# Submitted via: CDWizzard Release:4.35
#
DISCID=af0a670d
DTITLE=Shad O'Shea - S.O.S. 0001 Vol. 1
DYEAR=1900
DGENRE=
TTITLE0=Y-Tell Presents
TTITLE1=McLove Story
TTITLE2=Maybe The Roses
TTITLE3=Bare She Is
TTITLE4=Good-Bye Sam
TTITLE5=Colorado Call
TTITLE6=What Is America
TTITLE7=The Good Ship Titantic
TTITLE8=Big Mac and Tiny Tim
TTITLE9=Bub-Bub-Bub-Boo
TTITLE10=One Step Back
TTITLE11=Hell...I Don't Know
TTITLE12=Is There A M-M-M-Message?
EXTD=
EXTT0=
EXTT1=
EXTT2=
EXTT3=
EXTT4=
EXTT5=
EXTT6=
EXTT7=
EXTT8=
EXTT9=
EXTT10=
EXTT11=
EXTT12=
PLAYORDER=
